<?xml version="1.0" standalone="no"?>
<!DOCTYPE svg PUBLIC "-//W3C//DTD SVG 20010904//EN"
 "http://www.w3.org/TR/2001/REC-SVG-20010904/DTD/svg10.dtd">
<svg version="1.0" xmlns="http://www.w3.org/2000/svg"
 width="2048.000000pt" height="1777.000000pt" viewBox="0 0 2048.000000 1777.000000"
 preserveAspectRatio="xMidYMid meet">
<metadata>
Created by potrace 1.16, written by Peter Selinger 2001-2019
</metadata>
<g transform="translate(0.000000,1777.000000) scale(0.100000,-0.100000)"
fill="#000000" stroke="none">
<path d="M16226 17719 c15 -24 52 -82 82 -129 30 -47 80 -125 111 -173 31 -48
68 -107 83 -130 15 -23 28 -45 28 -50 0 -4 -22 4 -49 17 -27 14 -93 45 -147
70 -55 24 -169 76 -254 116 -313 145 -410 189 -410 182 0 -4 24 -37 53 -73 28
-37 77 -99 107 -139 30 -40 60 -77 65 -84 25 -27 115 -149 112 -153 -2 -1
-201 53 -443 122 -241 69 -448 128 -459 131 -14 4 -10 -4 15 -27 19 -18 91
-85 160 -150 69 -64 151 -140 183 -169 63 -58 70 -73 30 -60 -270 81 -627 187
-693 205 -47 13 -100 29 -119 34 l-35 11 35 -38 c19 -20 66 -71 104 -112 39
-41 99 -107 134 -145 36 -39 92 -98 125 -133 32 -34 57 -64 54 -67 -3 -3 -164
-12 -358 -20 -195 -9 -355 -17 -357 -19 -2 -1 74 -70 168 -151 l171 -149 -78
-75 c-44 -42 -149 -142 -234 -223 l-155 -147 270 -1 270 -1 -51 -47 c-28 -26
-138 -129 -245 -228 -107 -100 -221 -207 -254 -237 l-60 -56 183 -1 c100 0
182 -2 182 -5 0 -4 -37 -74 -82 -158 -44 -84 -102 -190 -127 -237 l-45 -84 50
29 c27 16 69 41 93 57 25 15 46 26 49 23 2 -2 -8 -99 -23 -215 -15 -116 -24
-214 -21 -217 3 -3 24 7 46 22 22 15 42 26 43 24 2 -2 20 -51 41 -109 90 -249
223 -454 424 -657 89 -90 235 -213 253 -213 5 0 9 12 9 28 0 45 47 206 91 312
77 185 235 394 392 518 182 144 382 236 627 289 121 26 439 26 560 0 271 -58
488 -175 681 -367 180 -180 302 -385 365 -615 35 -125 43 -331 20 -470 -59
-351 -271 -704 -645 -1075 -149 -149 -380 -350 -434 -379 -24 -13 -37 -9 -184
57 -183 82 -468 196 -598 240 -203 69 -536 105 -980 106 -551 2 -864 -28
-1515 -143 -268 -47 -1293 -296 -1485 -361 -77 -25 -481 -122 -589 -141 -117
-21 -142 -21 -706 -16 -1123 11 -1736 81 -2145 245 -227 90 -369 198 -1410
1063 -372 309 -842 681 -975 772 -14 9 -56 39 -95 66 -145 103 -422 260 -459
261 -6 0 -36 44 -66 98 -320 569 -730 1177 -1044 1551 -272 323 -965 1043
-1112 1156 -193 148 -309 100 -345 -145 -15 -103 -7 -484 16 -848 9 -133 15
-253 13 -266 -3 -22 -55 17 -502 374 -274 219 -516 406 -537 414 -74 30 -123
12 -135 -48 -6 -36 5 -77 294 -1121 152 -546 232 -841 232 -850 0 -6 -42 -37
-92 -70 -183 -120 -389 -302 -485 -430 -50 -66 -120 -206 -152 -305 -11 -36
-39 -151 -60 -257 -55 -265 -67 -307 -111 -398 -64 -132 -94 -160 -475 -438
-86 -63 -317 -236 -405 -303 -221 -169 -441 -366 -481 -430 -17 -29 -26 -34
-57 -34 -42 0 -165 -31 -202 -50 -41 -21 -70 -52 -70 -75 0 -52 104 -171 236
-267 67 -50 71 -55 89 -118 53 -186 187 -361 333 -434 103 -52 177 -66 340
-67 l139 0 17 -54 c70 -225 267 -354 538 -355 122 0 423 47 708 110 720 159
1079 185 1420 101 186 -46 308 -103 445 -206 110 -83 137 -107 223 -205 260
-296 429 -672 688 -1530 243 -806 508 -1349 885 -1816 122 -151 312 -327 447
-413 l53 -34 -5 -61 c-11 -108 -14 -1147 -4 -1281 6 -87 5 -172 -2 -255 -60
-679 -370 -2485 -455 -2650 -22 -42 -58 -64 -264 -160 -316 -148 -474 -232
-571 -305 -62 -46 -133 -119 -146 -152 -19 -44 -17 -108 3 -151 60 -127 298
-249 560 -286 289 -41 669 9 968 128 166 65 287 159 346 268 l34 63 6 300 c6
310 14 389 60 553 63 225 145 380 248 469 112 95 213 337 357 853 58 208 156
612 194 797 13 62 26 113 30 113 32 0 309 -988 341 -1215 13 -93 16 -269 10
-660 -3 -247 -1 -303 20 -475 29 -251 32 -515 6 -639 -35 -162 -104 -295 -212
-403 -60 -61 -117 -106 -335 -267 -112 -82 -251 -225 -293 -301 -130 -236
-102 -425 76 -516 94 -48 206 -68 387 -68 190 0 286 11 530 60 280 55 533 139
731 240 86 44 120 68 167 119 125 133 129 258 17 605 -56 175 -57 193 -45 581
6 193 9 353 6 357 -7 13 13 835 24 982 6 80 17 201 25 270 8 69 21 190 30 270
8 80 22 199 30 265 8 66 33 269 55 450 70 576 133 1068 151 1178 9 56 14 68
32 71 12 3 117 7 232 10 592 15 1197 120 1459 253 44 22 151 95 166 113 6 7
161 130 310 246 547 425 1168 843 1356 913 58 22 60 22 144 6 l85 -17 0 -356
c0 -417 11 -518 87 -787 37 -134 53 -176 118 -306 108 -217 222 -347 442 -501
81 -57 229 -159 330 -228 595 -408 858 -652 997 -927 42 -84 71 -209 71 -308
0 -115 -20 -188 -131 -479 -293 -764 -483 -1093 -689 -1188 -36 -17 -153 -66
-260 -108 -407 -163 -589 -269 -640 -374 -27 -57 -21 -94 27 -147 56 -62 200
-132 408 -197 475 -150 1055 -121 1274 64 75 63 264 355 476 739 69 123 275
505 275 508 0 2 22 44 48 93 68 125 183 347 293 564 51 102 108 205 125 230
77 109 107 207 106 336 -1 133 -26 189 -163 374 -22 30 -53 80 -69 110 -137
273 -250 808 -250 1192 0 138 4 168 22 168 6 0 65 -30 132 -66 66 -37 146 -80
176 -97 475 -258 916 -557 1073 -727 74 -79 95 -123 107 -215 12 -98 37 -200
115 -470 129 -451 176 -681 197 -978 13 -198 3 -382 -32 -550 -67 -327 -263
-690 -553 -1022 -38 -44 -169 -182 -291 -306 -293 -298 -352 -378 -363 -483
-17 -164 131 -290 407 -348 80 -17 120 -19 255 -15 263 9 375 36 729 177 299
119 433 187 502 257 90 90 105 130 184 517 28 132 63 302 80 376 16 74 52 243
80 375 28 132 55 256 60 275 5 19 25 109 44 200 19 91 73 338 121 550 48 212
95 426 106 475 10 50 46 199 79 332 33 133 60 259 60 280 0 108 -64 227 -360
673 -392 591 -559 904 -678 1267 l-20 62 39 158 c22 87 51 203 65 258 101 403
226 809 291 944 191 394 160 1590 -57 2241 -139 417 -402 953 -637 1298 -101
149 -151 213 -239 303 -35 37 -64 69 -64 72 0 2 17 12 38 20 20 8 101 45 180
81 l142 66 228 1 c125 1 279 4 342 8 l114 6 -74 37 c-85 42 -202 118 -207 133
-2 6 27 26 64 44 38 18 115 60 173 94 111 64 149 75 425 132 72 15 136 31 144
35 9 5 -16 17 -70 35 -131 43 -139 23 80 203 26 21 427 206 704 325 64 27 117
53 117 56 0 3 -111 8 -248 10 -136 2 -248 4 -250 6 -1 1 12 33 30 71 32 69
107 160 493 593 71 80 122 142 114 139 -40 -18 -347 -160 -362 -169 -11 -6
-22 -8 -25 -5 -3 4 29 91 71 194 347 854 328 805 299 785 -37 -25 -138 -97
-223 -160 -39 -29 -75 -53 -80 -53 -5 0 -7 10 -4 23 3 12 16 87 30 167 15 80
46 252 71 383 24 131 44 247 44 257 0 16 -11 15 -140 -18 -78 -19 -143 -32
-147 -29 -3 4 6 122 21 264 54 526 77 766 73 770 -4 3 -69 -83 -235 -310 -36
-48 -66 -86 -67 -85 -2 2 -9 210 -15 463 -6 253 -15 473 -19 489 -7 29 -8 26
-192 -419 -12 -30 -12 -29 -20 30 -4 33 -15 184 -24 335 -25 443 -28 471 -35
463 -7 -8 -48 -103 -123 -288 -69 -168 -78 -188 -83 -183 -4 5 -21 93 -115
620 -35 197 -66 358 -69 358 -5 0 -13 -45 -77 -457 -15 -101 -31 -183 -34
-183 -3 0 -31 53 -62 118 -30 64 -90 188 -131 275 -42 87 -76 159 -76 161 0
10 -172 358 -175 354 -2 -2 0 -50 5 -108 5 -58 14 -179 19 -270 6 -91 14 -193
17 -227 4 -38 2 -63 -3 -63 -5 0 -21 20 -34 43 -57 104 -454 767 -459 767 -3
0 -5 -120 -5 -267 0 -238 -2 -268 -16 -271 -11 -2 -74 74 -199 240 -202 268
-230 303 -230 292 0 -6 98 -366 116 -426 11 -38 -17 -14 -107 90 -196 225
-392 443 -395 440 -3 -4 19 -69 91 -273 85 -243 93 -234 -85 -108 -83 59 -164
117 -180 128 -84 59 -288 204 -326 233 -24 18 -44 31 -44 28 0 -2 61 -111 135
-242 75 -130 134 -239 131 -241 -4 -5 -83 42 -221 132 -55 36 -127 83 -160
104 -33 21 -105 68 -160 103 -96 62 -195 125 -223 142 -8 5 -1 -11 14 -35z
m-12673 -1291 c138 -72 363 -408 607 -903 234 -475 339 -811 285 -915 -11 -21
-24 -30 -56 -35 -22 -4 -45 -3 -49 1 -5 5 -36 117 -69 249 -72 282 -149 573
-150 563 -1 -4 12 -153 28 -330 40 -438 44 -494 38 -488 -4 3 -29 118 -57 255
-125 612 -148 718 -149 690 0 -16 6 -113 14 -215 29 -376 46 -640 43 -657 -3
-10 -10 14 -17 52 -56 318 -113 654 -132 772 -12 79 -24 141 -27 139 -3 -4 6
-118 63 -744 8 -90 15 -184 14 -210 0 -28 -45 174 -110 498 -60 300 -111 550
-114 555 -7 16 2 -79 50 -500 24 -214 47 -428 50 -475 5 -83 4 -81 -25 70 -31
156 -117 600 -144 740 -8 41 -15 67 -15 56 -1 -18 54 -734 63 -828 3 -27 2
-48 -3 -48 -4 0 -17 69 -29 153 -12 83 -25 170 -28 192 -3 22 -16 101 -29 175
l-23 135 -1 -307 c-1 -198 -5 -308 -11 -308 -5 0 -10 6 -10 13 0 8 -18 128
-39 268 -71 455 -101 758 -101 1005 0 305 44 430 133 382z m-1194 -453 c352
-413 685 -864 790 -1068 79 -154 61 -140 -63 48 -47 72 -86 125 -86 120 0 -6
16 -49 36 -95 79 -186 65 -170 -61 68 -49 94 -91 170 -92 168 -1 -1 14 -47 33
-102 20 -54 51 -141 70 -193 19 -52 32 -96 30 -98 -2 -2 -59 109 -127 246 -67
138 -124 250 -125 248 -2 -1 37 -126 87 -276 49 -151 88 -276 86 -278 -2 -2
-20 34 -40 79 -231 533 -281 647 -284 644 -2 -2 8 -36 21 -77 29 -88 207 -638
213 -659 4 -13 4 -13 -6 0 -6 8 -59 135 -118 282 -59 147 -109 265 -111 263
-2 -2 5 -37 17 -77 132 -470 153 -547 149 -560 -3 -8 -37 76 -154 377 -12 33
-23 56 -23 52 -1 -12 130 -500 136 -511 3 -5 0 -7 -7 -4 -14 4 -84 164 -134
306 -75 212 -94 269 -109 317 -8 28 -31 100 -50 160 -39 124 -117 421 -141
537 -14 68 -22 168 -13 168 2 0 36 -38 76 -85z m447 -2696 c76 -24 153 -64
234 -123 63 -46 150 -125 150 -136 0 -5 -35 7 -77 24 -191 80 -439 129 -545
107 -113 -24 -205 -118 -263 -270 -35 -92 -50 -83 -50 32 1 71 5 91 32 149 53
112 156 203 259 227 72 17 187 12 260 -10z m3893 -254 c32 -44 32 -45 9 -45
-19 0 -15 -7 32 -55 l54 -54 -40 6 -39 5 75 -76 75 -76 -64 25 c-36 14 -66 23
-68 21 -2 -2 111 -99 156 -133 2 -2 2 -5 0 -7 -2 -2 -42 11 -87 29 -46 19 -79
28 -72 20 6 -8 54 -49 106 -91 51 -43 92 -79 90 -81 -2 -2 -39 10 -82 26 -128
47 -123 46 -98 24 12 -10 59 -47 105 -83 123 -96 118 -92 89 -81 -14 5 -61 25
-104 45 -44 20 -80 35 -81 34 -2 -2 44 -41 100 -88 57 -47 99 -86 95 -88 -5
-2 -58 22 -119 52 -61 31 -114 56 -118 56 -4 0 51 -58 122 -130 71 -71 126
-130 122 -130 -5 0 -58 33 -120 73 -62 41 -119 78 -127 82 -15 9 14 -27 150
-190 85 -100 101 -123 79 -110 -8 5 -60 44 -116 86 -133 101 -135 102 -83 39
151 -180 199 -240 192 -240 -5 0 -67 39 -138 86 -71 47 -133 89 -139 92 -18
11 19 -32 101 -118 101 -104 163 -174 160 -178 -2 -1 -48 23 -102 54 -54 30
-124 69 -154 86 l-55 31 60 -63 c33 -34 94 -95 135 -136 73 -72 90 -105 33
-66 -32 22 -216 133 -253 152 l-25 13 26 -34 c70 -92 229 -316 229 -323 0 -4
-15 4 -32 19 -59 47 -242 190 -263 205 -17 12 -19 12 -9 0 72 -97 157 -206
196 -253 59 -71 68 -100 17 -56 -23 21 -105 88 -218 179 l-55 45 31 -45 c17
-25 76 -106 131 -180 56 -74 99 -136 97 -139 -2 -2 -37 20 -77 48 -198 141
-242 171 -250 171 -6 0 12 -28 40 -62 103 -131 204 -269 200 -273 -2 -2 -71
50 -153 115 -82 66 -153 120 -158 120 -4 0 0 -12 11 -27 24 -35 195 -320 212
-353 10 -20 -89 68 -201 179 -8 9 -41 41 -73 71 l-58 55 29 -50 c59 -100 213
-384 213 -392 0 -4 -23 17 -51 47 -68 74 -251 260 -256 260 -3 0 24 -52 154
-294 35 -65 62 -120 60 -123 -3 -2 -69 68 -147 157 -79 88 -144 160 -147 160
-5 0 26 -57 131 -235 51 -88 92 -162 89 -165 -2 -3 -20 13 -40 35 -19 22 -78
86 -130 142 -52 57 -104 114 -115 128 -45 58 -23 8 81 -179 109 -197 124 -226
116 -226 -2 0 -68 73 -146 163 -181 207 -173 198 -160 167 5 -14 52 -119 104
-235 52 -115 93 -212 91 -214 -5 -5 13 -28 -148 192 -76 103 -139 187 -141
187 -1 0 31 -78 72 -172 108 -249 125 -290 120 -294 -2 -2 -65 80 -140 184
-75 103 -146 198 -157 212 -20 24 -20 24 1 -30 12 -30 32 -84 46 -120 13 -35
33 -82 42 -105 27 -58 92 -237 89 -240 -2 -2 -66 98 -143 221 -77 123 -141
221 -143 216 -1 -4 21 -77 49 -162 93 -282 118 -365 103 -345 -8 10 -71 117
-141 237 -70 120 -128 216 -130 215 -1 -2 27 -117 63 -256 36 -139 64 -260 62
-267 -2 -8 -33 36 -70 98 -119 201 -218 362 -218 355 0 -8 117 -325 130 -352
20 -40 49 -135 42 -135 -4 0 -15 12 -24 28 -30 50 -301 437 -296 422 3 -8 49
-122 102 -253 53 -130 96 -243 96 -249 0 -16 -36 27 -179 217 -111 145 -171
220 -171 212 0 -2 50 -107 111 -232 61 -125 108 -229 106 -231 -2 -3 -96 89
-207 203 -112 114 -192 192 -178 173 141 -197 251 -355 255 -366 3 -8 2 -14
-2 -14 -18 0 -134 72 -176 109 -50 43 -132 157 -171 236 -27 53 -62 154 -57
160 2 1 58 17 124 35 328 87 594 202 831 361 363 243 661 620 821 1039 118
309 169 578 180 943 7 243 4 237 72 142z m-3959 -26 c25 -6 94 -34 155 -64 60
-29 129 -59 153 -66 l43 -12 -25 -26 c-14 -14 -39 -57 -57 -96 -43 -94 -89
-153 -156 -197 -59 -40 -87 -50 -60 -20 44 48 60 152 35 233 -14 50 -72 118
-115 135 -41 18 -114 18 -156 0 -87 -36 -132 -129 -125 -257 5 -92 -2 -92 -51
3 -46 91 -49 126 -18 190 76 154 208 216 377 177z m4658 -348 c39 -37 72 -71
72 -74 0 -3 -14 -7 -30 -9 -29 -3 -26 -6 54 -58 46 -30 82 -59 79 -63 -3 -5
-28 -6 -57 -2 -62 8 -62 9 77 -85 59 -40 106 -74 104 -77 -3 -2 -46 6 -97 17
-50 12 -93 20 -96 17 -2 -2 42 -29 98 -60 57 -31 121 -68 143 -82 l40 -25 -35
7 c-19 3 -79 16 -132 28 -54 12 -98 19 -98 16 0 -3 44 -31 98 -61 186 -105
240 -140 214 -140 -7 0 -73 14 -148 30 -75 17 -138 29 -140 27 -2 -2 69 -42
159 -90 89 -48 169 -92 177 -98 23 -16 -46 -3 -178 36 -63 18 -110 30 -105 26
4 -5 80 -50 168 -100 88 -51 165 -97 170 -103 14 -13 -21 -4 -204 53 -85 27
-156 47 -158 45 -2 -2 88 -70 201 -151 114 -80 206 -148 206 -150 0 -6 -17 1
-209 87 -96 42 -177 76 -179 73 -2 -2 9 -14 25 -28 95 -82 143 -123 256 -217
124 -103 158 -141 95 -102 -61 36 -373 195 -363 184 6 -6 47 -41 91 -79 259
-217 304 -256 300 -260 -3 -3 -44 13 -93 35 -48 23 -110 50 -138 61 -27 10
-85 35 -127 55 -43 19 -78 34 -78 32 0 -2 88 -70 196 -152 248 -189 241 -184
226 -184 -7 0 -54 15 -105 34 -160 60 -321 115 -325 112 -1 -2 89 -69 202
-150 113 -80 208 -151 211 -156 4 -6 -9 -4 -27 4 -86 38 -421 167 -425 163 -2
-3 89 -95 203 -206 114 -110 206 -203 203 -205 -2 -3 -73 33 -157 79 -200 110
-322 174 -322 171 0 -1 66 -63 147 -137 81 -74 173 -158 206 -188 32 -30 66
-60 75 -68 51 -38 -28 2 -230 116 -126 71 -225 123 -220 117 4 -7 63 -66 132
-132 69 -65 163 -156 210 -201 l85 -84 -55 24 c-30 13 -93 42 -140 65 -250
119 -321 150 -309 135 14 -16 50 -51 198 -188 105 -97 228 -218 216 -212 -22
10 -442 241 -474 260 -34 20 21 -46 306 -372 46 -52 81 -96 79 -98 -3 -4 -260
166 -366 242 -25 18 -65 45 -89 60 l-44 27 24 -33 c13 -19 83 -108 156 -199
74 -91 153 -188 176 -217 44 -56 61 -86 36 -67 -8 6 -86 64 -174 129 -88 65
-191 142 -230 171 -38 29 -71 51 -73 49 -2 -2 33 -50 78 -107 197 -248 320
-411 316 -415 -2 -3 -64 44 -138 103 -73 60 -179 145 -236 191 -56 46 -105 83
-107 83 -3 0 83 -107 192 -237 109 -131 205 -247 213 -258 14 -19 14 -19 -7
-5 -23 16 -268 202 -413 314 -46 37 -86 66 -88 66 -2 0 11 -17 28 -37 113
-134 381 -474 387 -490 4 -9 -52 31 -122 88 -71 57 -169 137 -219 178 -50 40
-108 87 -129 104 l-39 30 30 -44 c16 -24 70 -105 119 -179 50 -74 125 -186
167 -249 42 -62 76 -115 76 -118 0 -9 -76 62 -240 221 -183 179 -257 247 -245
226 5 -8 26 -40 46 -70 19 -30 80 -122 134 -205 53 -82 119 -182 146 -222 27
-39 49 -77 49 -84 0 -6 -71 58 -157 143 -123 120 -286 278 -370 358 -7 7 28
-52 210 -351 166 -275 180 -299 173 -299 -2 0 -57 60 -122 133 -66 72 -162
179 -214 237 -52 58 -112 125 -134 150 l-38 45 50 -95 c27 -52 94 -178 147
-280 54 -102 115 -218 137 -257 68 -126 56 -113 -241 246 -57 69 -124 149
-148 178 -25 29 -51 60 -59 70 -8 10 -3 -9 12 -42 14 -33 41 -94 59 -135 17
-41 43 -100 57 -130 105 -231 170 -382 166 -385 -4 -4 -252 278 -495 564 -13
14 35 -73 106 -194 232 -398 250 -429 247 -432 -3 -3 -62 56 -385 387 -159
162 -165 163 -71 15 31 -49 77 -124 102 -165 25 -41 82 -135 127 -209 45 -73
80 -135 78 -137 -4 -5 -133 113 -445 405 -78 74 -144 132 -146 130 -2 -2 77
-138 176 -303 98 -164 177 -300 175 -303 -3 -2 -36 22 -73 54 -38 32 -83 70
-100 83 -17 14 -112 93 -210 175 -198 167 -221 184 -184 137 177 -223 356
-455 359 -464 5 -16 -64 -1 -128 28 -76 34 -148 99 -229 206 -71 94 -192 302
-192 331 0 9 10 19 23 23 35 11 232 101 342 156 199 101 442 258 620 402 128
103 338 313 439 439 284 354 483 777 580 1230 47 219 63 338 77 560 20 331
-20 814 -87 1040 -9 29 8 19 84 -52z m1255 -1020 c31 -31 57 -59 57 -63 0 -4
-14 -8 -32 -10 -31 -3 -28 -6 66 -68 l99 -65 -64 -5 -64 -5 118 -79 c65 -44
122 -85 127 -91 6 -8 -30 -3 -96 12 -59 13 -109 22 -111 19 -3 -2 61 -41 141
-86 81 -45 148 -85 151 -89 3 -6 -115 17 -245 47 -24 6 -46 10 -47 8 -2 -2 80
-52 182 -111 171 -99 210 -125 188 -125 -4 0 -82 18 -173 39 -91 21 -166 38
-168 36 -2 -1 90 -53 203 -115 113 -62 204 -114 203 -116 -4 -3 -132 31 -266
69 -46 14 -80 21 -75 17 4 -4 67 -41 138 -82 138 -80 245 -146 245 -153 0 -2
-26 5 -57 15 -224 71 -356 111 -359 107 -2 -2 24 -23 59 -47 34 -24 103 -73
152 -110 50 -36 125 -91 167 -120 119 -85 107 -82 -167 43 -60 27 -130 58
-155 69 -43 19 -44 19 -27 0 10 -11 114 -102 232 -203 118 -101 212 -185 210
-187 -4 -4 -170 83 -372 195 -35 19 -63 33 -63 30 0 -2 41 -40 92 -83 50 -43
117 -101 148 -129 31 -27 87 -76 124 -109 37 -32 65 -60 63 -62 -2 -2 -28 7
-58 20 -216 97 -401 177 -404 174 -2 -2 43 -38 98 -80 321 -244 369 -282 360
-285 -7 -3 -210 69 -488 173 -32 12 -12 -5 180 -141 257 -184 287 -206 282
-211 -2 -2 -116 41 -253 96 -136 55 -251 100 -254 100 -3 0 101 -106 230 -235
129 -129 231 -235 227 -235 -8 0 -399 213 -481 261 -27 17 -50 28 -51 27 -1
-2 37 -39 84 -83 304 -279 400 -370 396 -373 -2 -2 -100 51 -217 119 -117 67
-233 133 -258 147 -35 18 9 -30 195 -212 132 -129 236 -236 232 -236 -9 0 -63
25 -376 177 -95 46 -175 82 -177 80 -3 -3 129 -130 331 -317 38 -36 86 -83
105 -104 l35 -39 -70 38 c-65 36 -199 110 -390 218 -44 25 -82 43 -84 41 -2
-2 14 -23 35 -47 21 -23 56 -63 76 -87 20 -25 102 -121 182 -215 80 -93 146
-174 146 -178 0 -5 -44 22 -97 59 -160 110 -437 300 -452 309 -11 6 131 -179
208 -271 14 -16 37 -45 51 -64 14 -18 58 -74 98 -124 78 -96 107 -140 81 -120
-8 5 -121 91 -252 190 -279 210 -276 208 -281 203 -2 -2 44 -65 102 -141 110
-140 305 -394 332 -431 14 -19 13 -20 -1 -11 -17 9 -430 342 -497 401 -20 17
-38 30 -40 28 -2 -2 43 -59 100 -127 57 -69 139 -169 183 -223 44 -54 96 -117
115 -139 60 -71 63 -76 54 -76 -5 0 -70 48 -144 106 -74 58 -151 117 -170 132
-19 15 -77 60 -128 100 -89 71 -123 89 -85 45 10 -11 63 -78 118 -148 55 -70
148 -189 207 -264 59 -74 105 -137 103 -139 -3 -4 -116 87 -330 264 -179 147
-225 185 -225 179 0 -5 67 -108 347 -533 41 -62 73 -115 71 -117 -2 -2 -89 81
-193 183 -246 241 -350 341 -340 322 5 -8 100 -156 212 -329 112 -172 201
-316 198 -319 -2 -3 -132 121 -287 276 -156 154 -284 279 -287 277 -2 -3 86
-154 196 -337 110 -183 206 -344 213 -358 13 -24 12 -24 -5 -10 -10 8 -63 67
-119 130 -101 116 -402 456 -419 475 -12 13 24 -58 138 -275 199 -379 257
-492 253 -495 -1 -2 -113 130 -248 292 -275 333 -294 354 -287 333 3 -8 67
-154 142 -325 197 -448 199 -451 178 -432 -10 9 -135 153 -278 320 -143 168
-262 303 -263 302 -2 -2 85 -157 193 -345 109 -187 195 -343 193 -345 -3 -3
-40 32 -84 78 -43 46 -160 168 -259 271 -99 104 -192 202 -207 219 -16 17 -28
27 -28 23 0 -4 91 -145 203 -314 234 -354 223 -336 209 -331 -5 2 -96 76 -202
164 -105 88 -213 178 -240 200 -27 22 -84 69 -127 105 -43 35 -71 56 -63 45
21 -28 123 -152 294 -358 81 -98 145 -181 142 -184 -3 -3 -23 5 -43 19 -57 38
-625 385 -648 395 -5 3 6 -8 25 -23 19 -16 100 -83 180 -149 80 -66 176 -144
213 -174 37 -30 67 -58 67 -63 0 -23 -235 49 -375 116 -50 23 -143 77 -206
118 -110 72 -259 191 -259 207 0 4 33 21 73 36 145 57 401 182 557 273 870
506 1443 1264 1684 2227 108 432 148 895 116 1355 -10 142 -35 360 -47 410
l-6 25 29 -25 c16 -13 55 -49 87 -79z m7640 40 c91 -101 206 -304 247 -436 29
-94 31 -210 5 -290 l-20 -60 -5 57 c-6 66 -15 81 -25 39 -8 -39 -55 -102 -97
-132 l-33 -23 26 34 c40 54 68 114 74 162 l6 43 -36 -70 c-36 -70 -66 -111
-50 -70 25 69 36 123 33 173 l-3 57 -13 -45 c-23 -80 -32 -90 -25 -28 6 61 -3
148 -16 148 -5 0 -11 -33 -14 -72 -12 -130 -25 -146 -27 -33 -3 154 -16 178
-18 35 -2 -69 -6 -150 -11 -180 l-9 -55 -1 75 c-2 107 -19 294 -30 322 -18 46
-23 -9 -19 -221 1 -115 1 -208 -1 -205 -10 10 -31 163 -37 278 -5 96 -10 123
-16 105 -14 -37 -10 -205 7 -294 18 -96 18 -110 1 -70 -21 48 -46 190 -47 263
-1 79 -17 58 -18 -23 -1 -51 29 -207 49 -259 6 -16 8 -31 5 -34 -9 -9 -57 111
-67 168 -20 109 -28 120 -24 34 2 -69 8 -93 39 -160 l37 -79 -30 34 c-31 36
-65 124 -76 198 -8 55 -24 45 -24 -15 0 -51 31 -127 76 -190 l28 -37 -37 35
c-21 20 -48 62 -61 94 -13 32 -26 54 -29 49 -6 -10 10 -139 19 -154 3 -5 2 -9
-3 -9 -14 0 -61 84 -77 139 -20 69 -20 179 -1 256 22 85 98 234 166 326 66 88
127 159 139 159 4 0 23 -17 43 -39z m-15708 -51 c61 -23 120 -69 131 -102 3
-10 -3 -31 -12 -48 -28 -47 -83 -60 -219 -53 -94 5 -120 3 -156 -11 -27 -11
-55 -15 -75 -11 -37 6 -121 85 -130 122 -13 50 29 99 104 124 15 5 88 7 162 5
110 -3 146 -7 195 -26z m15144 -206 c29 -8 68 -30 88 -47 l34 -32 -19 -45
c-32 -75 -45 -148 -40 -225 l5 -72 -61 27 c-80 36 -172 54 -246 47 -68 -6 -70
-4 -70 82 0 68 23 160 53 216 20 36 28 41 77 52 78 16 119 15 179 -3z m1251
-14 c23 -12 67 -84 81 -132 15 -53 13 -133 -6 -182 l-18 -46 -106 0 c-99 -1
-144 -9 -221 -44 -13 -5 -15 13 -15 131 -1 120 -3 144 -22 185 l-22 48 39 20
c73 37 236 49 290 20z m-6389 -68 c172 -178 270 -375 255 -515 -9 -86 -21
-101 -31 -36 -6 45 -9 50 -15 29 -11 -39 -47 -105 -64 -119 -20 -17 -20 -17 9
54 14 34 24 79 24 105 l0 45 -20 -65 c-12 -36 -24 -68 -28 -73 -4 -4 -5 32 -3
79 3 63 2 85 -7 80 -6 -4 -11 -24 -12 -44 -1 -27 -5 -16 -18 45 -9 45 -20 85
-24 89 -4 4 -8 -44 -8 -107 -2 -110 -2 -112 -9 -43 -11 98 -20 153 -29 158 -4
3 -4 -25 1 -62 7 -67 8 -254 1 -197 -13 103 -45 267 -58 300 -15 39 -15 37
-10 -65 3 -58 12 -134 20 -170 15 -69 19 -107 9 -98 -10 11 -54 192 -61 251
-3 31 -10 57 -16 57 -16 0 1 -145 28 -240 13 -46 22 -86 20 -88 -7 -7 -65 160
-74 210 -7 44 -9 47 -10 18 -1 -40 27 -145 58 -215 29 -65 26 -68 -9 -15 -30
45 -65 137 -74 195 -2 17 -3 1 -2 -35 2 -70 28 -137 73 -191 14 -16 20 -29 15
-29 -17 0 -65 72 -99 149 -30 69 -33 73 -33 41 0 -48 33 -117 78 -164 24 -25
30 -35 16 -27 -28 14 -73 68 -90 106 l-13 30 0 -30 c0 -16 6 -48 14 -70 8 -21
12 -41 10 -44 -8 -7 -44 42 -72 99 -26 51 -28 64 -27 170 1 100 4 125 29 190
41 111 156 310 179 310 6 0 41 -31 77 -68z m3429 33 c49 -25 63 -66 57 -159
-12 -190 -174 -480 -436 -780 l-95 -109 64 7 c109 11 369 57 434 76 34 10 111
39 171 64 214 89 350 108 421 60 49 -34 59 -46 94 -119 52 -108 63 -211 56
-530 -15 -687 -58 -1050 -156 -1325 -89 -251 -198 -397 -365 -491 -51 -29 -69
-34 -127 -34 -57 0 -70 4 -93 25 -47 43 -57 83 -63 245 -5 167 8 293 40 393
33 101 68 96 68 -10 0 -172 114 -210 219 -74 60 77 103 180 155 366 62 224 76
320 83 560 6 208 -2 333 -34 563 l-16 119 -31 -6 c-232 -41 -546 -40 -863 5
l-144 20 -112 -105 c-158 -147 -295 -256 -312 -249 -23 8 -18 30 18 70 279
316 475 603 600 878 52 115 66 156 97 280 53 214 160 317 270 260z m-11720
-160 c0 -14 -238 -159 -360 -220 -216 -108 -526 -207 -642 -204 l-33 1 35 15
c19 8 123 51 230 95 223 92 582 242 685 287 71 31 85 35 85 26z m10746 -90
c52 -40 66 -111 39 -201 -25 -85 -206 -307 -374 -459 l-54 -49 31 -90 c155
-449 245 -1014 213 -1345 -16 -168 -55 -372 -87 -463 -67 -188 -174 -340 -269
-384 -65 -31 -96 -30 -135 2 -41 35 -54 63 -84 182 -64 249 -80 380 -66 522
14 132 19 152 38 148 11 -2 19 -25 29 -81 18 -108 53 -167 97 -167 30 0 93 55
116 101 32 62 69 214 85 349 16 130 21 425 8 433 -5 3 -48 -33 -96 -79 -217
-208 -478 -403 -749 -559 -112 -64 -148 -74 -148 -42 0 8 17 27 38 43 72 54
308 273 386 358 163 180 299 354 419 537 93 143 93 142 68 235 -20 70 -50 164
-56 172 -2 2 -54 -30 -116 -71 -147 -95 -261 -158 -431 -240 -159 -76 -172
-80 -176 -51 -2 16 14 31 70 69 174 116 415 312 537 438 50 52 51 46 -19 187
-56 114 -63 147 -49 206 13 52 40 74 89 74 54 -1 75 -25 121 -143 40 -104 43
-107 61 -90 31 28 128 181 186 293 62 119 90 155 147 181 48 23 86 18 131 -16z
m2674 -230 c78 -24 162 -71 201 -112 24 -26 28 -34 14 -28 -11 4 -42 16 -70
26 l-50 19 28 -21 c36 -27 69 -80 90 -144 19 -55 17 -54 -38 29 -36 54 -104
116 -128 116 -5 0 16 -27 47 -61 66 -71 74 -97 14 -45 -42 36 -145 92 -154 84
-2 -3 16 -19 41 -37 25 -18 45 -36 45 -40 0 -4 -30 8 -67 26 -38 18 -84 36
-103 39 -34 5 -34 5 15 -23 62 -35 142 -90 149 -102 4 -5 -18 4 -48 20 -53 29
-158 69 -180 69 -6 0 39 -24 99 -54 61 -29 133 -68 160 -86 59 -39 55 -37 -95
28 -126 56 -264 98 -258 80 6 -16 133 -79 273 -135 66 -26 113 -49 105 -51
-19 -3 -236 67 -305 99 -27 13 -54 25 -60 28 -5 2 -1 -6 10 -19 35 -39 102
-67 305 -128 50 -15 58 -20 35 -21 -65 -2 -196 38 -319 97 -5 3 -6 -1 -2 -7
22 -35 157 -82 311 -107 l80 -13 -105 3 c-73 2 -123 10 -165 24 -33 11 -61 19
-63 17 -2 -1 12 -12 31 -24 56 -34 153 -54 232 -48 50 4 65 3 52 -4 -34 -20
-121 -22 -201 -5 -44 9 -81 14 -83 12 -2 -2 17 -13 42 -25 49 -23 152 -29 215
-11 31 8 33 8 16 -5 -24 -18 -90 -28 -155 -24 -44 3 -49 2 -34 -9 18 -13 107
-42 130 -42 7 0 13 -4 13 -9 0 -15 -92 -21 -154 -11 -191 31 -362 195 -500
480 -26 51 -46 99 -46 105 0 10 204 58 290 69 76 9 286 -3 340 -19z m1394 11
c133 -26 396 -123 396 -147 0 -5 -28 -48 -62 -96 -125 -174 -307 -328 -440
-372 -78 -25 -156 -35 -186 -24 -21 8 -17 11 35 28 l58 19 -53 8 c-51 8 -159
54 -149 64 3 3 29 -2 58 -10 59 -18 174 -22 164 -6 -3 6 -18 10 -33 10 -15 0
-49 6 -77 14 l-50 13 90 5 c55 3 103 12 120 21 l30 16 -70 1 -70 2 70 15 c59
12 151 51 142 59 -1 2 -22 -1 -46 -7 -65 -15 -161 -26 -161 -20 0 3 37 16 82
29 45 12 96 32 113 43 16 12 21 18 10 14 -83 -29 -313 -80 -322 -72 -1 2 41
17 94 32 101 30 226 79 278 109 l30 17 -53 -6 c-43 -5 -212 -56 -367 -110 -16
-6 -16 -4 4 10 30 22 160 78 271 116 70 24 79 29 50 29 -55 0 -173 -36 -260
-80 -95 -48 -123 -52 -54 -8 66 42 157 84 224 103 l55 15 -52 -4 c-56 -5 -173
-55 -245 -103 -67 -46 -72 -48 -62 -30 23 40 144 116 229 143 l40 13 -41 0
c-55 1 -149 -47 -215 -110 -28 -27 -54 -48 -56 -46 -10 11 93 107 153 142 52
30 63 41 47 43 -28 4 -104 -33 -135 -66 -15 -15 -38 -45 -52 -66 -14 -21 -26
-34 -26 -27 0 25 52 92 102 131 45 36 48 40 22 34 -16 -3 -55 -19 -86 -34 -32
-15 -58 -25 -58 -21 0 14 97 99 140 125 94 53 233 68 374 42z m-5614 -126
c136 -33 180 -49 180 -69 0 -9 -30 -66 -67 -127 -130 -210 -293 -343 -431
-351 l-57 -3 45 22 45 21 -50 7 c-51 8 -132 37 -123 45 2 2 22 0 43 -6 44 -12
140 -8 155 7 7 7 -2 9 -23 6 -18 -2 -48 1 -67 6 -25 7 -29 10 -13 11 31 1 153
42 153 51 0 5 -17 4 -37 -1 -62 -14 -71 -9 -21 10 49 19 121 61 116 67 -2 1
-28 -5 -58 -15 -30 -10 -73 -21 -95 -25 -35 -6 -32 -3 27 23 63 27 138 69 138
76 0 2 -33 -11 -72 -30 -75 -34 -186 -70 -194 -63 -2 3 28 18 67 34 92 37 229
117 208 122 -20 4 -153 -48 -234 -92 -124 -66 -128 -57 -7 17 48 29 117 66
154 82 37 16 66 31 64 33 -2 2 -30 -4 -61 -12 -51 -13 -97 -37 -227 -115 -21
-13 -38 -21 -38 -18 0 12 130 102 185 128 33 16 53 29 44 29 -38 0 -124 -49
-207 -118 -29 -24 -55 -42 -57 -40 -9 9 103 109 155 137 62 34 41 43 -25 11
-38 -18 -106 -79 -140 -125 -8 -11 -15 -15 -15 -9 0 20 62 94 111 130 27 20
48 39 45 41 -3 3 -25 -5 -50 -17 -33 -15 -56 -38 -86 -82 -22 -33 -40 -58 -40
-55 0 22 27 65 67 108 43 46 45 49 18 38 -17 -7 -46 -24 -65 -36 -51 -34 -55
-28 -19 22 51 71 146 126 253 145 71 13 205 4 306 -20z m-1279 -152 c38 -11
82 -33 100 -50 23 -20 28 -28 14 -23 -11 3 -33 9 -50 12 l-30 6 30 -26 c17
-14 44 -49 59 -79 l29 -53 -55 56 c-30 31 -70 64 -89 74 -32 16 -30 13 21 -39
30 -31 51 -56 48 -56 -4 0 -26 13 -50 29 -41 27 -99 51 -122 51 -6 0 9 -14 34
-30 53 -35 52 -36 -23 -10 -31 11 -69 20 -84 20 -22 -1 -13 -7 40 -30 66 -29
139 -73 92 -55 -64 24 -143 45 -165 44 -20 -1 -21 -2 -5 -6 11 -2 61 -20 111
-39 107 -41 162 -75 69 -43 -82 28 -214 59 -250 59 -28 0 -28 -1 -10 -14 23
-16 147 -55 255 -81 41 -10 69 -20 62 -23 -21 -7 -212 28 -266 49 -28 10 -52
16 -54 14 -12 -11 120 -60 222 -81 l111 -24 -80 5 c-44 3 -105 12 -135 20 -58
15 -81 12 -35 -5 48 -18 107 -29 194 -34 46 -3 86 -7 88 -9 2 -2 -23 -7 -54
-10 -54 -6 -184 6 -204 19 -5 3 -9 2 -9 -1 0 -3 17 -13 38 -22 39 -16 138 -21
207 -10 l40 6 -30 -14 c-19 -9 -66 -15 -125 -15 -89 -2 -93 -3 -65 -15 39 -18
109 -18 160 0 21 8 41 12 44 10 7 -8 -62 -32 -114 -40 l-50 -8 40 -9 c22 -5
54 -12 70 -17 l30 -8 -45 -13 c-149 -41 -334 44 -473 217 -58 73 -147 202
-147 214 0 12 96 48 197 75 173 46 292 50 414 12z m5089 -319 c27 -37 144
-114 208 -135 l63 -22 -40 -31 c-22 -18 -60 -59 -85 -91 -38 -51 -52 -82 -81
-177 -3 -8 -15 -8 -48 2 -74 22 -128 55 -184 110 -46 46 -53 59 -53 93 0 97
60 206 135 249 50 28 67 29 85 2z m2018 -66 c43 -56 69 -111 82 -180 16 -79
10 -99 -41 -150 -71 -72 -154 -102 -243 -89 -42 7 -46 10 -46 35 0 62 -59 195
-110 248 l-31 32 28 6 c140 26 217 56 276 106 17 16 37 28 44 29 6 0 25 -17
41 -37z m-558 -128 c109 -55 198 -177 235 -320 24 -92 30 -249 15 -384 -7 -66
-16 -125 -21 -132 -17 -28 -274 76 -408 165 -83 56 -168 137 -206 196 -27 43
-70 159 -61 167 2 2 20 -19 41 -47 20 -27 38 -50 40 -50 2 0 -1 14 -7 31 -12
36 -6 157 10 185 9 15 11 4 12 -57 0 -42 7 -96 16 -122 18 -54 37 -74 23 -25
-5 18 -9 60 -8 93 l0 60 14 -52 c15 -55 42 -114 69 -148 19 -25 20 -13 1 49
-8 27 -14 51 -12 52 1 2 15 -21 30 -50 23 -43 110 -145 95 -111 -2 6 -23 50
-46 99 -24 48 -41 90 -39 92 2 3 21 -24 41 -58 31 -53 99 -138 111 -138 2 0
-19 33 -45 73 -57 85 -125 216 -117 223 3 3 13 -9 23 -28 41 -80 209 -297 221
-284 12 12 -71 151 -182 303 -25 35 -40 60 -33 57 28 -12 186 -209 233 -291
l16 -28 -6 30 c-9 43 -59 127 -118 199 -28 33 -53 63 -56 66 -4 3 -17 18 -31
35 l-25 29 42 -32 c59 -46 139 -137 174 -196 36 -63 38 -51 4 18 -28 57 -81
117 -168 195 -31 28 -55 51 -52 51 33 0 154 -102 206 -174 31 -42 39 -34 13
16 -27 52 -95 117 -161 154 -35 20 -63 37 -63 39 0 8 67 -19 105 -43 22 -13
64 -47 93 -75 54 -53 62 -55 38 -9 -30 57 -114 117 -191 137 -16 4 -24 10 -18
12 22 8 113 -28 159 -63 l45 -34 -15 27 c-8 16 -27 42 -43 59 -67 73 -67 76 7
39z m-1029 -35 c-17 -22 -30 -40 -28 -40 3 0 25 9 50 20 46 20 203 41 162 21
-11 -5 -29 -10 -40 -10 -33 -1 -138 -56 -165 -86 l-25 -28 25 16 c33 21 140
60 147 54 2 -3 -12 -13 -33 -23 -39 -19 -144 -117 -144 -135 0 -6 14 1 31 15
17 15 45 34 62 42 25 13 21 7 -22 -36 -28 -28 -61 -70 -73 -93 l-21 -42 61 56
c33 31 76 67 94 79 32 23 32 22 -8 -21 -56 -61 -98 -118 -118 -159 -16 -34
-16 -34 1 -10 34 46 173 195 210 225 43 33 35 20 -48 -75 -66 -76 -172 -231
-163 -239 10 -10 150 142 238 259 63 83 69 90 60 65 -13 -38 -134 -213 -185
-270 -57 -62 -61 -79 -8 -38 47 37 110 114 165 203 57 92 70 107 48 55 -41
-99 -110 -206 -159 -247 -11 -10 -15 -17 -9 -18 26 0 113 113 164 214 30 58
56 103 58 101 11 -11 -55 -164 -95 -222 -29 -43 -37 -61 -24 -54 50 27 103
117 125 212 17 70 26 85 26 42 0 -44 -28 -131 -61 -189 -37 -65 -37 -75 1 -39
39 37 60 84 75 169 l13 71 1 -53 c1 -29 -8 -78 -19 -108 -24 -69 -7 -59 47 27
20 33 38 59 41 59 15 0 -15 -114 -45 -172 -59 -112 -177 -206 -330 -261 -76
-27 -275 -74 -338 -79 l-40 -3 2 85 c8 322 110 576 272 681 25 16 47 27 49 24
3 -3 -9 -23 -27 -45z m-4580 -5 c103 -52 164 -134 208 -278 24 -77 44 -255 39
-342 l-3 -60 -40 4 c-21 1 -84 16 -139 33 -236 70 -394 184 -441 319 l-16 44
40 -39 40 -39 -14 39 c-15 43 -18 98 -6 129 6 14 10 5 15 -35 8 -58 36 -133
55 -144 6 -4 5 7 -3 31 -7 21 -16 58 -20 83 l-6 45 20 -52 c12 -28 39 -71 62
-95 22 -23 36 -36 30 -28 -16 24 -32 70 -24 70 4 0 17 -15 29 -34 12 -19 36
-44 54 -57 34 -24 33 -20 -11 46 -56 83 -50 88 18 15 77 -81 97 -91 32 -15
-22 26 -59 74 -81 108 -38 58 -33 53 74 -58 166 -173 168 -127 3 54 -39 42
-81 89 -95 105 l-26 29 34 -23 c42 -29 143 -127 194 -189 20 -25 37 -40 37
-35 0 26 -65 107 -146 183 -62 58 -78 78 -54 65 19 -11 72 -55 117 -99 45 -45
75 -69 68 -55 -19 36 -90 104 -162 157 -35 25 -63 47 -63 49 0 13 122 -62 170
-104 53 -46 54 -46 35 -13 -28 47 -79 86 -149 115 -40 17 -53 25 -37 26 29 0
111 -41 162 -81 42 -33 48 -32 23 6 -21 32 -74 64 -132 80 -46 13 -46 13 -12
14 20 0 53 -10 79 -24 24 -14 46 -23 48 -21 3 3 -16 25 -42 50 -54 53 -41 60
36 21z m-910 -111 c-27 -46 -27 -49 7 -26 34 24 87 42 121 41 21 0 18 -3 -18
-17 -24 -9 -65 -36 -90 -60 -45 -42 -42 -46 9 -12 14 9 38 21 53 28 22 10 17
1 -26 -41 -48 -47 -86 -97 -73 -97 3 0 22 15 43 33 40 35 40 34 -12 -42 -48
-73 -44 -92 8 -32 54 63 77 74 39 18 -33 -48 -65 -107 -58 -107 3 0 23 26 45
58 40 57 129 160 115 132 -5 -8 -32 -53 -62 -99 -53 -82 -96 -170 -88 -178 10
-10 46 39 185 257 18 28 21 30 15 10 -11 -40 -73 -161 -108 -210 -51 -71 -52
-78 -7 -35 25 24 64 82 97 145 30 58 52 92 49 75 -9 -42 -61 -153 -91 -192
-14 -18 -21 -33 -16 -33 11 0 52 51 72 90 8 14 28 66 46 115 18 50 33 82 34
71 0 -36 -32 -142 -61 -195 -28 -53 -28 -54 -4 -31 36 34 65 100 80 183 l13
72 1 -55 c0 -35 -9 -81 -24 -125 -31 -86 -31 -87 0 -45 30 41 34 52 45 132 l9
63 -2 -81 c-2 -89 3 -89 44 -2 l20 43 -3 -66 c-9 -164 -132 -295 -365 -389
-106 -42 -213 -73 -222 -64 -3 3 -6 85 -6 182 0 196 13 268 66 374 28 56 109
148 130 148 6 0 2 -16 -10 -36z m7519 -248 c62 -117 94 -195 85 -204 -3 -3
-36 16 -74 41 l-69 46 78 -127 c43 -70 77 -128 75 -131 -3 -2 -33 15 -67 37
-34 23 -64 39 -66 37 -2 -2 30 -50 71 -107 42 -57 72 -104 67 -106 -5 -2 -40
13 -79 32 -39 20 -73 36 -77 36 -5 0 88 -124 106 -140 3 -3 18 -23 35 -45 16
-22 34 -43 39 -47 7 -5 7 -8 -1 -8 -7 0 -61 25 -120 55 -59 30 -109 55 -111
55 -1 0 11 -19 29 -42 77 -106 199 -284 199 -291 0 -10 -2 -9 -143 91 -65 46
-120 82 -122 80 -1 -1 18 -37 45 -78 145 -229 201 -322 198 -326 -2 -2 -82 55
-178 126 -96 72 -175 130 -177 130 -1 0 23 -36 55 -79 31 -44 103 -143 160
-221 57 -78 101 -144 99 -146 -2 -2 -95 57 -205 131 -111 75 -202 133 -202
130 0 -5 139 -195 271 -370 37 -49 66 -91 64 -94 -6 -5 -55 28 -280 188 -93
66 -171 119 -173 117 -2 -2 41 -71 96 -152 195 -294 252 -382 252 -389 0 -3
-33 22 -73 57 -41 35 -137 118 -215 185 -78 68 -142 122 -142 120 0 -1 67
-130 149 -287 81 -157 147 -287 145 -289 -4 -5 -95 80 -306 288 -76 74 -140
133 -142 130 -2 -2 11 -35 30 -74 18 -38 74 -158 124 -265 50 -107 100 -212
111 -233 28 -55 23 -67 -13 -27 -17 19 -50 56 -72 81 -261 292 -340 379 -343
376 -2 -2 60 -152 137 -332 77 -181 138 -330 136 -332 -3 -3 -296 313 -430
464 -21 24 -40 42 -43 40 -2 -3 46 -116 108 -253 120 -268 179 -405 179 -414
0 -3 -13 9 -28 26 -250 282 -465 524 -467 524 -2 0 71 -165 224 -504 44 -99
79 -181 77 -183 -2 -2 -104 103 -227 234 -123 131 -244 258 -267 283 l-44 45
45 -85 c25 -47 101 -188 170 -315 169 -312 153 -280 130 -264 -10 8 -124 123
-252 257 -129 133 -236 241 -238 238 -2 -2 64 -140 147 -306 83 -166 149 -304
147 -306 -4 -4 -314 273 -507 453 -19 17 -36 31 -37 29 -3 -2 233 -493 268
-558 9 -17 8 -18 -9 -9 -11 6 -22 15 -24 20 -1 5 -57 67 -123 137 -114 123
-163 175 -250 272 -21 23 -40 40 -42 39 -3 -4 40 -108 124 -302 19 -44 46
-109 59 -145 l26 -64 -23 19 c-13 11 -32 29 -43 41 -57 58 -337 316 -340 313
-2 -2 21 -47 51 -99 31 -52 80 -135 108 -185 29 -49 52 -92 50 -93 -2 -2 -32
18 -67 45 -35 27 -103 80 -153 118 -49 38 -118 91 -152 118 -35 27 -63 46 -63
43 0 -8 100 -177 122 -205 20 -26 23 -41 8 -41 -5 0 -49 23 -97 52 -94 55
-279 226 -271 249 2 7 56 34 119 59 159 64 501 233 693 342 421 239 760 491
1051 783 167 166 266 283 377 445 242 350 371 709 395 1093 l6 107 24 -34 c12
-19 50 -87 83 -150z m-4100 45 c212 -5 239 -8 275 -27 102 -53 109 -138 26
-327 -27 -61 -57 -138 -67 -170 -10 -32 -26 -62 -35 -67 -9 -5 -65 -25 -125
-45 -130 -44 -179 -68 -263 -130 -119 -88 -211 -110 -280 -69 -71 42 -123 172
-141 349 -6 61 -15 146 -20 190 -19 155 -10 205 48 260 49 47 90 55 227 49 66
-4 226 -9 355 -13z m2668 -331 c35 -47 91 -99 124 -116 16 -8 28 -18 28 -23 0
-16 -58 -88 -101 -125 -52 -45 -129 -86 -161 -86 -64 0 -198 116 -218 189 -18
66 -13 89 23 107 73 36 138 90 179 145 l42 58 29 -57 c16 -31 41 -73 55 -92z
m2175 -539 c81 -112 82 -117 12 -86 -32 14 -60 24 -62 22 -2 -2 30 -42 71 -88
41 -46 74 -85 72 -86 -3 -4 -14 0 -91 31 -38 16 -36 12 44 -64 46 -44 77 -80
70 -80 -8 0 -39 7 -69 15 -30 8 -55 13 -57 11 -3 -2 100 -97 159 -146 30 -25
18 -25 -83 5 -46 13 -87 25 -91 25 -4 0 46 -52 112 -117 66 -64 118 -118 116
-120 -2 -2 -39 12 -82 33 -44 20 -98 45 -122 55 l-43 19 21 -30 c11 -16 25
-32 30 -35 20 -12 212 -227 207 -231 -3 -3 -27 6 -53 20 -27 15 -101 51 -164
82 l-115 55 75 -71 c41 -39 117 -110 168 -157 50 -48 90 -88 88 -91 -3 -2 -84
30 -182 72 -98 42 -179 74 -181 72 -2 -2 73 -74 167 -161 94 -87 169 -159 167
-162 -2 -2 -40 13 -83 33 -44 20 -101 47 -129 59 -27 13 -85 39 -128 59 -43
20 -77 32 -75 27 1 -6 84 -91 182 -191 98 -99 177 -183 174 -185 -3 -3 -56 25
-119 61 -171 99 -269 153 -269 148 0 -3 44 -60 98 -127 180 -224 222 -278 222
-287 0 -4 -53 27 -117 70 -244 161 -304 200 -309 200 -6 0 18 -34 239 -341 48
-67 86 -123 84 -125 -2 -2 -31 17 -64 43 -66 52 -335 259 -366 282 -25 18 -36
35 156 -251 86 -129 157 -238 157 -241 0 -9 -78 46 -223 157 -162 125 -240
181 -236 170 5 -12 91 -138 227 -331 56 -81 102 -151 102 -155 0 -5 -44 25
-97 67 -287 221 -373 285 -373 280 0 -6 47 -75 267 -389 42 -60 70 -107 62
-104 -13 5 -336 237 -451 324 -51 38 -63 35 -25 -6 22 -25 161 -196 285 -352
35 -44 62 -81 60 -83 -2 -2 -103 66 -223 151 -121 86 -228 160 -239 166 -23
12 -20 8 48 -81 165 -218 263 -348 271 -360 11 -18 34 -32 -320 186 -71 43
-148 90 -170 103 l-40 25 20 -27 c11 -14 47 -62 80 -107 33 -44 95 -127 137
-183 43 -57 73 -104 69 -106 -5 -2 -47 25 -93 59 -181 136 -235 177 -286 213
l-53 38 41 -63 c22 -35 78 -121 125 -191 76 -115 92 -154 46 -114 -25 21 -351
225 -351 220 0 -3 52 -64 116 -136 63 -71 113 -132 110 -135 -4 -4 -207 95
-353 172 -24 13 -43 21 -43 18 0 -3 34 -43 75 -88 41 -46 75 -86 75 -89 0 -32
-240 83 -324 156 l-39 34 124 83 c800 537 1379 1222 1558 1846 59 204 74 325
68 540 -3 105 -9 204 -12 220 -6 29 -4 27 43 -23 27 -29 75 -88 105 -131z
m-8669 -28 c41 -84 74 -161 87 -208 l8 -30 -34 37 c-19 21 -35 36 -35 33 0 -2
25 -52 56 -111 30 -58 54 -108 52 -109 -2 -2 -27 14 -56 37 -30 22 -55 38 -57
36 -2 -2 28 -46 67 -98 106 -144 109 -158 22 -95 -109 77 -137 96 -140 93 -3
-3 66 -115 153 -250 23 -37 43 -72 43 -77 0 -5 -45 36 -101 92 -102 104 -105
102 -39 -13 109 -189 160 -283 157 -286 -2 -2 -58 46 -124 106 -67 61 -124
110 -128 110 -3 0 16 -42 43 -92 150 -281 183 -349 165 -339 -10 6 -76 67
-148 135 -71 69 -131 123 -133 121 -3 -2 50 -102 117 -221 67 -119 119 -219
117 -222 -3 -2 -80 64 -171 148 -91 83 -165 149 -165 146 0 -3 35 -58 78 -122
95 -145 86 -131 150 -227 30 -43 51 -81 49 -84 -5 -4 -62 37 -299 214 -54 40
-98 70 -98 67 0 -3 32 -49 72 -102 40 -53 96 -130 126 -171 29 -41 65 -89 79
-108 14 -18 21 -33 17 -33 -5 0 -93 65 -197 145 -103 79 -187 142 -187 139 0
-6 109 -170 175 -264 110 -157 126 -182 122 -186 -4 -4 -70 50 -252 206 -48
41 -101 86 -118 100 l-31 25 24 -40 c23 -39 72 -117 204 -324 36 -58 66 -108
66 -113 0 -8 -184 151 -367 316 -29 27 -53 45 -53 42 0 -5 174 -266 277 -413
24 -35 40 -63 36 -63 -5 0 -69 48 -143 106 -173 135 -237 185 -263 204 -19 13
14 -37 90 -135 71 -94 202 -279 199 -283 -3 -2 -100 61 -218 140 -117 79 -220
148 -228 153 -15 9 19 -31 219 -258 57 -65 101 -120 98 -123 -3 -3 -105 49
-227 116 -123 66 -224 119 -226 117 -2 -1 34 -34 79 -72 139 -118 268 -235
260 -235 -5 0 -107 38 -228 84 -121 46 -233 89 -250 95 l-30 11 25 -21 c14
-12 94 -66 179 -121 84 -54 151 -102 148 -104 -3 -3 -108 22 -234 55 -125 33
-241 63 -258 66 -16 4 42 -32 130 -80 155 -84 203 -114 160 -101 -36 10 -468
86 -472 82 -2 -2 47 -22 109 -46 62 -23 118 -47 123 -53 14 -13 -129 -2 -225
18 -82 17 -240 64 -253 75 -4 4 18 24 50 45 80 53 262 190 358 269 413 342
757 730 984 1108 179 300 318 676 357 966 3 28 10 52 14 52 4 0 24 -35 44 -77z
m878 -132 c111 -112 136 -150 72 -111 -62 39 -46 16 46 -65 50 -44 90 -83 90
-87 0 -4 -26 2 -57 13 -31 10 -61 18 -66 16 -5 -1 41 -36 102 -76 98 -65 136
-99 99 -86 -22 7 -216 55 -223 55 -4 0 64 -54 150 -121 86 -67 155 -123 152
-125 -2 -2 -54 21 -116 52 -63 30 -116 53 -119 49 -3 -3 -3 -6 -1 -8 13 -11
185 -153 189 -157 3 -3 33 -29 68 -59 34 -29 61 -55 59 -57 -2 -2 -71 23 -153
56 -82 33 -152 60 -157 60 -4 0 74 -72 173 -161 167 -149 198 -179 187 -179
-3 0 -85 34 -182 75 -98 42 -180 74 -182 71 -2 -2 49 -48 114 -102 158 -131
264 -226 260 -231 -3 -3 -375 141 -422 164 -16 8 37 -35 80 -65 140 -94 345
-247 336 -250 -6 -2 -106 24 -223 58 -117 34 -222 64 -233 66 -25 5 -34 12
168 -119 201 -131 246 -161 242 -165 -3 -3 -124 31 -359 103 -59 18 -104 29
-100 25 5 -5 99 -72 209 -149 110 -76 209 -146 220 -155 20 -16 19 -17 -5 -10
-14 3 -128 44 -253 89 -136 49 -221 75 -210 65 10 -10 109 -86 221 -170 112
-83 201 -154 199 -156 -2 -3 -82 25 -178 62 -283 107 -329 124 -329 120 0 -4
120 -91 345 -249 55 -39 102 -72 104 -74 2 -2 2 -5 0 -8 -3 -2 -41 7 -84 21
-44 14 -150 48 -236 74 -85 27 -164 52 -175 56 -18 7 34 -29 299 -204 71 -46
126 -86 124 -89 -5 -4 -136 25 -371 83 -76 18 -141 32 -143 31 -3 -4 351 -198
411 -226 56 -26 2 -23 -258 14 -137 20 -250 34 -252 32 -3 -3 70 -44 320 -181
83 -45 97 -56 72 -56 -10 0 -127 14 -259 30 -132 17 -241 29 -243 27 -2 -2 44
-23 104 -47 138 -57 272 -118 272 -125 0 -3 -109 -3 -242 0 l-243 6 167 -58
c91 -32 169 -61 173 -65 10 -10 -62 -17 -280 -25 l-200 -8 140 -33 c77 -19
158 -38 180 -44 l40 -11 -35 -15 c-55 -24 -333 -28 -543 -7 -94 9 -176 20
-180 24 -4 5 9 21 30 37 319 241 602 588 774 949 104 218 164 397 212 630 45
216 52 295 51 580 0 276 -8 370 -53 608 -12 66 -15 97 -7 97 6 0 59 -49 118
-109z m1166 -1172 c2 -5 -5 -9 -15 -9 -20 -1 -17 -3 37 -40 13 -8 32 -23 44
-33 21 -18 20 -18 -34 -14 l-55 5 63 -29 c35 -15 73 -36 85 -44 21 -16 18 -16
-48 -11 l-70 6 93 -47 c50 -26 92 -50 92 -54 0 -3 -21 -2 -47 2 -27 4 -64 10
-83 13 l-35 6 35 -17 c20 -10 64 -31 99 -46 34 -16 61 -31 58 -33 -2 -2 -49 4
-105 15 -56 10 -99 14 -96 10 3 -5 10 -9 15 -9 11 0 220 -102 217 -106 -2 -1
-52 9 -112 22 -60 13 -111 22 -113 20 -3 -2 50 -35 116 -72 66 -37 119 -69
117 -71 -2 -2 -54 8 -116 22 -62 14 -117 24 -122 23 -5 -2 45 -28 111 -57 67
-30 119 -56 117 -58 -2 -2 -64 7 -137 21 -122 24 -173 28 -118 11 38 -12 245
-114 233 -114 -7 -1 -75 14 -153 33 -78 18 -141 32 -141 30 0 -2 63 -35 141
-75 77 -39 139 -73 137 -75 -3 -2 -62 8 -133 21 -70 14 -129 24 -131 22 -2 -2
46 -28 106 -58 61 -29 110 -57 110 -62 0 -5 -8 -6 -17 -3 -10 2 -63 7 -118 11
l-100 6 55 -23 c30 -13 74 -30 98 -37 23 -8 42 -17 42 -21 0 -4 -39 -11 -87
-15 -127 -10 -138 -19 -46 -34 87 -15 88 -14 -42 -55 -79 -25 -79 -26 -27 -20
28 2 52 1 52 -4 0 -25 -298 -128 -316 -109 -4 4 3 30 16 59 41 96 130 371 160
493 59 242 76 485 46 637 -7 37 -11 70 -8 73 5 5 125 -92 130 -106z m-5318
-4628 c134 -62 348 -134 463 -157 48 -9 87 -20 87 -24 0 -5 -29 -88 -64 -187
-35 -98 -85 -248 -111 -333 -48 -160 -69 -218 -60 -170 8 44 54 433 60 505 l5
70 -24 -70 c-28 -82 -146 -452 -172 -540 -17 -59 -34 -91 -34 -67 0 7 27 159
60 339 33 179 60 335 59 347 0 24 -42 -94 -159 -452 -46 -139 -85 -251 -87
-248 -4 4 12 112 87 595 17 107 29 196 26 198 -2 3 -50 -136 -106 -309 -119
-366 -139 -428 -151 -448 -11 -19 -11 -17 76 413 39 197 69 354 65 350 -7 -8
-24 -53 -145 -378 -107 -289 -128 -345 -133 -341 -2 2 35 161 82 352 48 191
85 349 83 351 -4 3 -18 -30 -168 -420 -46 -119 -85 -213 -87 -208 -2 5 16 78
39 162 102 379 182 676 186 697 3 12 8 22 11 22 3 0 53 -22 112 -49z m9145
-81 c182 -72 390 -129 473 -130 17 0 32 -3 32 -7 0 -4 -26 -52 -57 -107 -154
-273 -189 -336 -298 -531 -193 -345 -199 -355 -202 -351 -3 2 48 124 99 235
149 328 188 415 184 418 -2 3 -26 -33 -54 -79 -27 -46 -80 -132 -117 -193 -37
-60 -96 -157 -131 -215 -111 -183 -107 -162 22 120 158 345 217 480 201 459
-7 -9 -95 -163 -197 -342 -102 -179 -186 -322 -188 -317 -2 5 17 53 41 107 25
54 93 206 152 338 59 132 116 257 126 278 11 20 17 37 15 37 -4 0 -60 -88
-321 -505 -75 -121 -142 -224 -147 -230 -10 -11 26 74 132 310 156 346 217
485 214 485 -1 0 -79 -114 -172 -252 -274 -409 -315 -468 -319 -464 -2 2 73
157 166 345 94 187 171 344 171 348 0 3 -17 -18 -38 -48 -21 -30 -121 -171
-221 -314 -185 -264 -234 -326 -189 -245 14 25 49 90 78 145 30 55 66 123 80
150 15 28 48 91 75 140 26 50 58 109 71 132 41 72 26 59 -54 -48 -241 -321
-335 -445 -344 -454 -15 -14 10 33 42 80 163 242 354 620 390 772 l12 51 76
-35 c42 -19 131 -56 197 -83z m-6576 -902 l-2 -553 -22 220 c-12 121 -28 281
-36 355 l-13 135 -7 -75 c-4 -41 -12 -193 -19 -337 -7 -145 -16 -263 -20 -263
-3 0 -12 154 -19 343 -7 188 -14 343 -16 345 -3 4 -8 -38 -46 -410 -18 -174
-35 -316 -37 -314 -1 2 -3 162 -2 355 0 193 -4 351 -8 351 -5 0 -14 -39 -21
-87 -30 -222 -93 -620 -101 -643 -5 -15 -9 127 -11 360 -1 212 -4 374 -6 360
-91 -551 -141 -811 -127 -660 10 115 53 755 50 757 -2 2 -13 -43 -25 -99 -58
-263 -152 -674 -157 -683 -8 -18 4 124 36 414 17 156 29 288 27 294 -2 6 -14
-38 -26 -98 -51 -252 -74 -355 -78 -352 -2 2 2 39 9 83 6 43 12 171 11 284 0
217 -13 316 -54 409 -11 24 -17 46 -15 48 2 3 42 -2 88 -11 156 -29 327 -40
437 -28 77 9 175 33 209 51 1 0 1 -248 1 -551z m9158 263 c106 -39 253 -77
354 -92 114 -16 298 -7 374 19 33 11 61 19 63 17 2 -2 -1 -20 -7 -42 -23 -82
-211 -865 -211 -878 0 -8 -4 -16 -9 -19 -5 -4 -7 11 -5 31 4 38 19 298 29 508
l5 110 -39 -115 c-21 -63 -69 -209 -106 -323 -36 -115 -68 -207 -70 -205 -2 1
18 131 44 288 27 157 51 305 54 330 l5 45 -34 -70 c-49 -101 -222 -469 -256
-544 -15 -35 -30 -62 -32 -60 -4 4 38 165 116 439 62 223 68 244 59 234 -5 -5
-98 -153 -206 -329 -109 -176 -199 -322 -201 -324 -18 -20 5 48 112 328 68
179 123 326 121 327 -2 2 -99 -132 -382 -527 -38 -54 -71 -96 -73 -94 -2 2 55
127 128 277 73 150 139 289 147 308 21 49 43 73 -316 -349 -85 -99 -156 -179
-158 -177 -4 4 31 67 170 306 135 234 138 240 133 240 -2 0 -33 -34 -67 -75
-35 -41 -65 -73 -67 -70 -2 2 14 30 36 62 91 135 172 311 188 412 4 23 10 41
13 41 4 0 44 -13 88 -29z"/>
<path d="M13795 9524 c-38 -7 -142 -25 -229 -39 -87 -13 -160 -26 -162 -27 -1
-2 -6 -63 -10 -136 -5 -92 -4 -132 4 -132 6 0 41 8 79 17 45 11 114 17 205 17
l136 1 7 64 c4 35 17 105 30 157 12 52 19 94 16 93 -3 0 -37 -7 -76 -15z"/>
</g>
</svg>
